PathFileType	4	(X/Y/Z)	Run_400 02
DataRate	CameraRate	NumFrames	NumMarkers	Units	OrigDataRate	OrigDataStartFrame	OrigNumFrames
100	100	6	45	mm	100	406	137
Frame#	Time	LASI			RASI			LPSI			RPSI			RTH1			RTH2			RTH3			LTH1			LTH2			LTH3			RTB1			RTB2			RTB3			RLMAL			RMMAL			LTB1			LTB2			LTB3			RCAL			RTOE			RMT5			LCAL			LTOE			LMT5			LACR			RACR			CLAV			C7			LPSH			RUA1			RUA2			RUA3			RLEL			RMEL			LUA1			LUA2			LUA3			LLEL			LMEL			RFAsuperior			RFAradius			RFAulna			LFAsuperior			LFAradius			LFAulna		
		X1	Y1	Z1	X2	Y2	Z2	X3	Y3	Z3	X4	Y4	Z4	X5	Y5	Z5	X6	Y6	Z6	X7	Y7	Z7	X8	Y8	Z8	X9	Y9	Z9	X10	Y10	Z10	X11	Y11	Z11	X12	Y12	Z12	X13	Y13	Z13	X14	Y14	Z14	X15	Y15	Z15	X16	Y16	Z16	X17	Y17	Z17	X18	Y18	Z18	X19	Y19	Z19	X20	Y20	Z20	X21	Y21	Z21	X22	Y22	Z22	X23	Y23	Z23	X24	Y24	Z24	X25	Y25	Z25	X26	Y26	Z26	X27	Y27	Z27	X28	Y28	Z28	X29	Y29	Z29	X30	Y30	Z30	X31	Y31	Z31	X32	Y32	Z32	X33	Y33	Z33	X34	Y34	Z34	X35	Y35	Z35	X36	Y36	Z36	X37	Y37	Z37	X38	Y38	Z38	X39	Y39	Z39	X40	Y40	Z40	X41	Y41	Z41	X42	Y42	Z42	X43	Y43	Z43	X44	Y44	Z44	X45	Y45	Z45	

406	  4.060000	971.974190	1030.490411	-459.822376	969.532015	1046.991357	-229.598718	805.559261	1069.625558	-394.153868	802.901866	1071.911047	-305.284819	941.416177	790.378440	-181.314059	1034.595908	749.360000	-215.242252	999.493350	631.153186	-222.684860	866.356797	803.140027	-502.859766	938.987922	693.071703	-500.699385	887.758885	598.733301	-482.384483	1078.052836	397.300482	-289.039876	1035.503627	338.288939	-251.147950	1043.176164	216.820899	-309.681071	988.806633	112.643007	-299.730766	1010.159347	136.028075	-380.358857	793.664189	445.391606	-452.783916	687.510578	530.986960	-461.147548	602.810151	460.533380	-429.122111	929.092955	 96.248586	-370.433050	1154.623045	 68.472196	-341.590029	1078.543954	 53.681612	-271.908141	465.313972	555.012335	-364.646114	426.312672	339.074915	-408.079681	405.440228	406.506505	-464.251051	952.606105	1545.757555	-485.341928	915.953676	1502.870590	-172.539204	998.328812	1460.233430	-302.107735	890.106245	1547.821806	-332.165687	873.583906	1507.661790	-510.494700	831.956880	1369.393977	-96.076135	750.170783	1336.647824	-130.965825	735.304614	1283.771513	-88.370704	724.844983	1217.589485	-60.374062	713.187021	1206.038798	-147.724978	886.220088	1434.239914	-579.535651	820.658037	1361.362897	-584.764104	848.531830	1321.353302	-642.936470	852.994337	1244.193892	-671.344041	801.111672	1226.892334	-598.061638	771.816848	1153.378771	-69.342927	970.743142	1151.027978	-110.428080	949.598093	1088.775386	-96.365760	912.209319	1188.743790	-616.013511	1030.757865	1241.618162	-498.928722	1047.329311	1178.712192	-521.289797	
407	  4.070000	968.051326	1020.597044	-457.978758	964.936394	1038.118322	-227.267271	799.211791	1061.670938	-393.357768	796.803191	1065.025355	-304.682984	935.619612	784.980524	-181.104008	1028.498243	741.606218	-214.284838	994.789172	625.091815	-226.066800	871.976884	793.725244	-501.890184	951.122613	687.569748	-501.789788	906.675828	591.408614	-484.227769	1063.788745	392.511290	-297.379942	1018.651107	336.424348	-258.329780	1016.198711	214.519702	-316.438041	954.702558	114.400622	-306.277279	975.628631	135.592253	-386.611361	819.402787	441.965704	-453.896222	714.829096	528.468250	-465.205177	628.940336	459.520191	-432.423391	891.199050	 97.230826	-374.207804	1117.341277	 67.212610	-343.957855	1040.451762	 54.994187	-274.917125	491.888088	556.926585	-371.782239	452.164357	339.982996	-409.394289	431.874355	406.006678	-467.569083	950.822334	1536.423549	-486.943659	919.144309	1493.390413	-170.704197	1000.128960	1451.082901	-302.730938	891.313085	1540.015659	-330.983187	871.020087	1498.310917	-509.927719	840.244238	1354.421437	-93.794882	757.939180	1319.876043	-125.210440	745.697482	1266.816794	-81.931573	738.308719	1201.096391	-54.310425	724.125121	1189.011135	-141.641792	880.474381	1425.345739	-579.512446	814.088370	1353.499806	-584.356286	839.161597	1314.436898	-644.409039	841.569895	1238.454343	-674.678462	791.473160	1220.072197	-600.064190	785.999744	1138.226731	-64.737235	983.861101	1139.069450	-110.502167	964.005036	1076.760039	-94.972330	900.766334	1179.130479	-623.532865	1025.007168	1222.088785	-509.261053	1039.256673	1160.262718	-535.561643	
408	  4.080000	963.187488	1012.006141	-456.533121	959.439541	1030.398224	-224.070222	792.805099	1054.832154	-393.051106	790.213107	1059.196277	-304.344994	928.707150	779.592632	-181.619603	1021.573761	735.941224	-213.560823	988.455769	620.247559	-228.361971	877.294743	787.238732	-500.782190	963.303059	685.500622	-502.157342	926.409005	588.107107	-485.646024	1047.744013	388.145232	-303.203169	999.614770	335.335968	-262.604416	988.263771	213.223482	-319.712789	919.827396	116.130195	-309.842066	941.172768	136.205276	-389.609227	846.748971	440.577795	-454.057167	742.670379	526.450107	-468.896484	656.451421	457.523268	-435.516009	853.619492	 98.629834	-375.976919	1079.863986	 65.997394	-345.694563	1002.394088	 55.302186	-276.381013	517.727133	555.687930	-379.687842	480.569032	337.194107	-410.529836	460.626308	401.125459	-471.272589	949.359840	1528.162914	-488.652596	922.657205	1485.399689	-169.293133	1001.716115	1443.254178	-303.622582	892.586264	1534.058204	-330.059379	868.546377	1490.778711	-509.626582	849.540479	1340.953156	-92.677320	766.292106	1304.640233	-119.749477	756.853033	1251.053200	-76.187025	753.529738	1185.924323	-49.029733	736.648019	1172.898777	-136.074097	874.587357	1417.362390	-579.291679	806.665451	1346.044630	-583.044450	828.668948	1308.250676	-644.901956	829.528115	1234.042891	-676.804516	781.178336	1214.290017	-601.003552	801.900728	1124.733442	-60.785330	998.094006	1128.513799	-111.421001	979.313191	1066.236436	-94.031198	888.880430	1171.535356	-630.480303	1017.964693	1204.667103	-519.730183	1030.334499	1144.313454	-549.990619	
409	  4.090000	957.841228	1005.933930	-456.238210	953.813689	1024.321574	-220.463083	787.170014	1049.818842	-392.766181	784.728680	1054.644242	-304.318502	920.487174	774.066884	-182.393103	1013.293920	730.800116	-214.158216	978.602379	615.148077	-229.574875	882.610035	784.017429	-500.012906	975.910602	687.480618	-501.869735	946.475419	589.148736	-486.377788	1028.570952	382.309489	-306.302940	977.633253	332.505398	-264.395520	958.238624	210.823204	-320.714001	883.002897	117.092962	-310.458920	905.231411	136.506955	-390.169429	875.061339	441.546313	-453.986564	770.108480	525.188821	-471.936364	684.567358	454.847681	-438.473035	815.667787	 99.521698	-376.109928	1041.651881	 64.790080	-346.290963	963.858429	 55.207607	-276.091887	541.600512	551.212862	-387.648059	511.798407	330.834577	-411.876550	491.608109	392.112182	-475.341186	948.177575	1521.604124	-490.170565	926.659498	1479.569987	-168.922716	1002.615892	1437.155370	-305.063916	893.582852	1529.922773	-329.597015	866.126455	1485.910466	-509.455492	859.441410	1330.898800	-92.646493	775.182535	1292.410969	-115.706147	768.655991	1238.257147	-71.846922	769.962274	1173.652202	-45.047660	750.161874	1159.171733	-131.335960	868.570151	1411.646709	-578.691838	798.365781	1340.547955	-580.485555	817.489688	1304.177047	-644.083710	817.185405	1231.743141	-677.374467	770.986572	1210.580456	-600.879080	819.287536	1114.080443	-57.816960	1013.176573	1120.391349	-113.747526	995.368880	1058.341846	-93.884527	876.601216	1166.361019	-636.337207	1010.066450	1190.125824	-529.970620	1020.413677	1131.238001	-563.635052	
410	  4.100000	952.832056	1002.892732	-457.091029	949.005502	1020.104549	-217.161919	782.594488	1047.223160	-391.892516	781.557308	1051.757355	-304.450827	911.273594	769.182898	-182.862920	1003.214549	724.439038	-215.084604	964.517448	609.171202	-230.128005	888.343527	783.528949	-499.843215	989.300023	693.303888	-501.164505	966.496124	593.874161	-486.428786	1005.728115	374.794406	-307.392999	952.658866	327.461233	-265.184357	926.041201	207.103580	-321.180883	845.032948	117.591032	-309.741278	868.093609	136.379640	-389.929525	903.599126	444.818490	-454.163770	796.363505	524.562028	-474.337590	712.572294	451.649118	-441.366183	777.326918	 99.926139	-375.629282	1002.952071	 63.987661	-345.810799	925.081923	 55.047915	-275.259590	563.275473	543.457554	-394.921715	545.948129	321.380609	-413.980430	524.496586	379.837567	-479.728342	946.608162	1517.311761	-491.419689	931.077260	1476.410388	-169.700926	1002.736470	1433.029837	-307.175574	894.019435	1527.411226	-329.564603	863.288872	1483.803568	-509.253421	869.099324	1325.307255	-93.048666	784.385060	1284.049237	-113.803109	780.693474	1229.768212	-69.210882	786.349463	1165.493268	-42.577864	763.806687	1149.367576	-127.789058	862.217652	1408.951522	-577.712501	789.555540	1338.306264	-576.744168	806.206679	1303.119291	-641.971748	804.630361	1231.724606	-676.501496	761.064883	1209.613889	-599.517807	837.106866	1107.088787	-56.163034	1028.297436	1115.838133	-118.007969	1011.708500	1054.230854	-95.081419	863.756653	1163.509859	-640.390716	1001.475623	1179.179098	-539.194955	1009.245509	1121.388894	-575.443001	
411	  4.110000	948.815136	1002.565170	-458.318225	945.805810	1017.753584	-215.019712	779.147676	1047.077281	-390.378814	780.542835	1050.887846	-304.374250	901.786900	765.856725	-182.879979	991.437504	716.773472	-215.132132	947.327158	603.145840	-230.231679	894.634846	785.141341	-500.182011	1003.272296	702.345077	-500.305705	986.294318	601.504223	-486.221834	979.654927	366.905200	-307.191262	924.919257	321.743458	-265.797591	892.309937	203.358948	-321.696166	807.168335	118.305522	-309.172825	830.928850	136.415033	-389.901334	931.712219	450.040891	-454.343226	821.165824	524.323995	-476.305392	740.172290	447.907053	-444.168029	738.923248	100.250181	-375.580443	964.269361	 63.664830	-344.879115	886.419181	 54.870210	-274.991600	583.552812	532.386390	-401.052880	582.646928	309.460869	-417.211965	558.761629	365.358019	-484.403085	943.694521	1515.659946	-492.522291	935.573055	1476.021673	-171.134511	1002.402587	1431.106507	-309.797662	893.869188	1526.487981	-329.739251	859.342446	1483.941039	-508.751039	877.815957	1323.822980	-93.226725	793.438498	1279.649412	-113.578426	792.247934	1225.827518	-67.938853	801.308501	1161.700386	-41.332382	776.627861	1144.354364	-125.503272	855.149070	1409.176997	-576.481831	780.698998	1339.620406	-572.448134	795.107498	1305.002738	-638.975469	791.667665	1233.719503	-674.550875	750.828179	1211.517374	-596.613002	853.856942	1104.021390	-55.953451	1042.195432	1115.819522	-124.388141	1027.529087	1054.749866	-98.181994	850.189941	1162.791284	-642.175346	992.096373	1172.519826	-546.622553	996.822866	1115.270643	-584.534159	
